<?xml version="1.0" encoding="UTF-8"?>
<svg version="1.1" xmlns="http://www.w3.org/2000/svg" width="109" height="96">
<path d="M0 0 C2.18975773 3.28463659 2.99806563 6.20696275 4 10 C4.763125 9.38125 5.52625 8.7625 6.3125 8.125 C11.44104803 4.069869 11.44104803 4.069869 15 3.625 C18 4 18 4 19.9375 5.5625 C21.44542122 9.02184868 20.75615188 11.34526592 20 15 C19.7215625 16.7015625 19.7215625 16.7015625 19.4375 18.4375 C19.293125 19.283125 19.14875 20.12875 19 21 C19.495 20.835 19.99 20.67 20.5 20.5 C25.39339641 19.52132072 29.72141938 19.14761292 34 22 C33.65434409 27.87615054 32.3396794 30.10541593 28 34 C28 34.66 28 35.32 28 36 C28.71027344 36.30292969 29.42054687 36.60585938 30.15234375 36.91796875 C31.07144531 37.33691406 31.99054688 37.75585938 32.9375 38.1875 C34.31228516 38.79658203 34.31228516 38.79658203 35.71484375 39.41796875 C38 41 38 41 38.91015625 43.54296875 C39 46 39 46 37.5 48.125 C34.4464649 50.41515132 31.55909221 51.63111838 28 53 C28.3609375 53.43570313 28.721875 53.87140625 29.09375 54.3203125 C31.4490528 57.3429511 32.89083171 59.4323249 33.625 63.25 C33 66 33 66 31.125 68 C26.4783517 69.48692746 22.62002745 68.24695887 18 67 C18.350625 68.19625 18.70125 69.3925 19.0625 70.625 C20.00313821 74.38755283 20.08290796 77.20982214 19 81 C17 83 17 83 14.3125 83.5 C9.6435754 82.79525666 7.27216497 80.25280305 4 77 C3.70867187 77.56589844 3.41734375 78.13179688 3.1171875 78.71484375 C-0.23924719 84.72053978 -0.23924719 84.72053978 -4.0625 86.125 C-7.12964813 85.99448306 -8.4861655 85.70007776 -11 84 C-11.828125 81.8359375 -11.828125 81.8359375 -12.25 79.375 C-12.39953125 78.55773437 -12.5490625 77.74046875 -12.703125 76.8984375 C-12.80109375 76.27195312 -12.8990625 75.64546875 -13 75 C-13.78375 75.78375 -14.5675 76.5675 -15.375 77.375 C-20 82 -20 82 -23.9375 82.375 C-26.76022533 82.2826199 -27.72990804 82.19643052 -30.0625 80.5 C-31.77520129 75.93279656 -30.50244874 71.50734623 -29 67 C-29.66386719 67.09539062 -30.32773437 67.19078125 -31.01171875 67.2890625 C-40.50428507 68.48082995 -40.50428507 68.48082995 -44 66 C-45.0625 63.75 -45.0625 63.75 -45 61 C-43.1875 57.875 -43.1875 57.875 -41 55 C-40.34 54.01 -39.68 53.02 -39 52 C-39.55429687 51.73445313 -40.10859375 51.46890625 -40.6796875 51.1953125 C-41.40414062 50.84210937 -42.12859375 50.48890625 -42.875 50.125 C-43.95394531 49.60292969 -43.95394531 49.60292969 -45.0546875 49.0703125 C-47 48 -47 48 -49 46 C-49.25 42.6875 -49.25 42.6875 -48 39 C-44.85599288 36.85417511 -41.53400553 35.39179528 -38 34 C-38 33.34 -38 32.68 -38 32 C-38.99 31.67 -39.98 31.34 -41 31 C-43.08011219 28.29585415 -42.99164948 26.83855664 -42.8125 23.375 C-42 20 -42 20 -39 18 C-35.45776514 18.31627097 -32.37355726 18.87548091 -29 20 C-29.14308594 19.11248047 -29.14308594 19.11248047 -29.2890625 18.20703125 C-30.41353124 10.19192268 -30.41353124 10.19192268 -28 6 C-26 4 -26 4 -23.125 3.625 C-19.31827215 4.08180734 -18.47026259 5.18901153 -16 8 C-15.01 8.33 -14.02 8.66 -13 9 C-12.9071875 7.63875 -12.9071875 7.63875 -12.8125 6.25 C-12 3 -12 3 -9.875 0.5625 C-6.09657635 -1.49099112 -4.08418622 -1.15590176 0 0 Z M-12 38 C-13.17267333 41.9577725 -13.44714192 44.04183875 -11.6875 47.8125 C-8.96786288 51.42505622 -8.96786288 51.42505622 -4.625 52.5 C-0.83482769 52.3550189 -0.83482769 52.3550189 1.5 49.4375 C3.31034027 45.28880355 3.27868136 43.31554958 2 39 C0.00176254 36.21674068 -1.0532227 35.16993439 -4.4375 34.5625 C-7.7067157 35.12065878 -9.47157135 35.822742 -12 38 Z " fill="#F3BB48" transform="translate(61,10)"/>
<path d="M0 0 C1.32 0 2.64 0 4 0 C4.495 1.98 4.495 1.98 5 4 C8.63 4 12.26 4 16 4 C16 6.64 16 9.28 16 12 C18.31 12 20.62 12 23 12 C23.495 16.95 23.495 16.95 24 22 C24.85851562 21.80535156 25.71703125 21.61070313 26.6015625 21.41015625 C30.32475161 20.96080584 32.7807398 21.43909439 36.375 22.4375 C37.43460937 22.72496094 38.49421875 23.01242188 39.5859375 23.30859375 C40.38257812 23.53675781 41.17921875 23.76492187 42 24 C42 25.32 42 26.64 42 28 C36.55106131 29.19876651 33.77830905 28.91360308 29 26 C28.505 27.485 28.505 27.485 28 29 C25.9375 30.1875 25.9375 30.1875 24 31 C24.495 33.475 24.495 33.475 25 36 C25.495 35.01 25.495 35.01 26 34 C26.66 34 27.32 34 28 34 C28 34.66 28 35.32 28 36 C29.65 36.33 31.3 36.66 33 37 C33.33 37.99 33.66 38.98 34 40 C35.485 40.99 35.485 40.99 37 42 C37.1875 44.625 37.1875 44.625 37 47 C25.47835991 47.3690205 25.47835991 47.3690205 20 45 C20.495 45.928125 20.495 45.928125 21 46.875 C22.40387684 51.26211512 22.15967523 55.43151427 22 60 C20.02 59.34 18.04 58.68 16 58 C16 57.34 16 56.68 16 56 C15.34 56 14.68 56 14 56 C14 54.68 14 53.36 14 52 C11.36 51.67 8.72 51.34 6 51 C6.01160156 51.91523437 6.02320313 52.83046875 6.03515625 53.7734375 C6.04417969 54.96195313 6.05320313 56.15046875 6.0625 57.375 C6.07410156 58.55835938 6.08570313 59.74171875 6.09765625 60.9609375 C6 64 6 64 5 66 C3.02 66 1.04 66 -1 66 C-1 65.34 -1 64.68 -1 64 C-1.66 64 -2.32 64 -3 64 C-3.99 59.05 -3.99 59.05 -5 54 C-7.64 53.34 -10.28 52.68 -13 52 C-13 52.99 -13 53.98 -13 55 C-13.66 55 -14.32 55 -15 55 C-14.91621094 54.34773438 -14.83242188 53.69546875 -14.74609375 53.0234375 C-14.17445896 48.11750856 -13.84688018 43.86872815 -15 39 C-17.475 39.495 -17.475 39.495 -20 40 C-19.896875 40.763125 -19.79375 41.52625 -19.6875 42.3125 C-20 45 -20 45 -22 46.8125 C-25.92093992 48.36453872 -28.80167404 48.2134742 -33 48 C-33.33 46.02 -33.66 44.04 -34 42 C-33.01 42.33 -32.02 42.66 -31 43 C-30.9175 42.05125 -30.835 41.1025 -30.75 40.125 C-30.37875 38.578125 -30.37875 38.578125 -30 37 C-28 35.8125 -28 35.8125 -26 35 C-25.67 34.01 -25.34 33.02 -25 32 C-25.99 32 -26.98 32 -28 32 C-28 31.34 -28 30.68 -28 30 C-30.64 30 -33.28 30 -36 30 C-36.33 29.34 -36.66 28.68 -37 28 C-39.02463255 27.34786708 -39.02463255 27.34786708 -41 27 C-41 25.35 -41 23.7 -41 22 C-37.07142246 20.14868517 -34.01224888 19.77995057 -29.6875 19.875 C-28.61886719 19.89304687 -27.55023438 19.91109375 -26.44921875 19.9296875 C-25.64097656 19.95289062 -24.83273438 19.97609375 -24 20 C-23.67 19.01 -23.34 18.02 -23 17 C-23.763125 16.731875 -24.52625 16.46375 -25.3125 16.1875 C-27.88988618 15.04865495 -29.26954864 14.18583329 -31 12 C-31 11.34 -31 10.68 -31 10 C-31.66 10 -32.32 10 -33 10 C-33 7.69 -33 5.38 -33 3 C-31.741875 2.979375 -30.48375 2.95875 -29.1875 2.9375 C-28.47980469 2.92589844 -27.77210937 2.91429687 -27.04296875 2.90234375 C-23.26071606 3.08313977 -21.46583727 4.3197421 -19 7 C-18.34 7.66 -17.68 8.32 -17 9 C-17.33 9.99 -17.66 10.98 -18 12 C-18.66 12 -19.32 12 -20 12 C-20 13.65 -20 15.3 -20 17 C-19.01 17 -18.02 17 -17 17 C-17.33 18.65 -17.66 20.3 -18 22 C-18.66 22 -19.32 22 -20 22 C-20.33 22.99 -20.66 23.98 -21 25 C-21.66 25 -22.32 25 -23 25 C-23 25.66 -23 26.32 -23 27 C-21.68 27 -20.36 27 -19 27 C-19 27.66 -19 28.32 -19 29 C-18.01 29 -17.02 29 -16 29 C-16.103125 30.093125 -16.20625 31.18625 -16.3125 32.3125 C-16.209375 33.529375 -16.10625 34.74625 -16 36 C-15.175 36.474375 -14.35 36.94875 -13.5 37.4375 C-12.2625 38.2109375 -12.2625 38.2109375 -11 39 C-10.52596378 41.78844835 -10.766277 44.14857943 -11 47 C-8.03 46.505 -8.03 46.505 -5 46 C-5 45.34 -5 44.68 -5 44 C-3.35 44 -1.7 44 0 44 C0 45.98 0 47.96 0 50 C2.11043785 48.030258 3.79308082 46.42601007 5.0625 43.8125 C6 42 6 42 9 41 C10.96655202 38.24534988 10.96655202 38.24534988 12.75 34.875 C13.38421875 33.75867187 14.0184375 32.64234375 14.671875 31.4921875 C16.2197961 27.42206555 15.94366055 25.1990398 15 21 C14.814375 19.865625 14.62875 18.73125 14.4375 17.5625 C14.293125 16.716875 14.14875 15.87125 14 15 C13.34 15.99 12.68 16.98 12 18 C11.01 17.67 10.02 17.34 9 17 C7.8125 14.4375 7.8125 14.4375 7 12 C3.7 12 0.4 12 -3 12 C-3 12.66 -3 13.32 -3 14 C-3.99 14 -4.98 14 -6 14 C-6.43956044 8.63736264 -6.43956044 8.63736264 -6 6 C-3.5625 4.1875 -3.5625 4.1875 -1 3 C-0.67 2.01 -0.34 1.02 0 0 Z " fill="#F69714" transform="translate(54,28)"/>
<path d="M0 0 C0.33 0 0.66 0 1 0 C1.33 3.3 1.66 6.6 2 10 C2.66 10 3.32 10 4 10 C4 10.99 4 11.98 4 13 C4.66 13 5.32 13 6 13 C7.625 14.5 7.625 14.5 9 16 C9.33 15.67 9.66 15.34 10 15 C11.66617115 14.95936168 13.33388095 14.957279 15 15 C16.80411967 17.75924185 17.0127245 18.88972103 16.625 22.25 C16.41875 23.1575 16.2125 24.065 16 25 C16.99 25 17.98 25 19 25 C19 24.34 19 23.68 19 23 C24.1601686 21.8630137 24.1601686 21.8630137 27 22 C29.875 24.3125 29.875 24.3125 32 27 C32.66 27.66 33.32 28.32 34 29 C34.33 27.68 34.66 26.36 35 25 C37.79892363 27.79892363 38.52236356 31.15814168 39 35 C38.52270163 39.13885871 37.00144958 42.52107074 35.1875 46.25 C34.68605469 47.30703125 34.18460938 48.3640625 33.66796875 49.453125 C32 52 32 52 29.86328125 52.67578125 C29.24839844 52.78277344 28.63351563 52.88976562 28 53 C27.32060826 54.99571323 26.65438441 56.99594773 26 59 C23.875 60.375 23.875 60.375 22 61 C22 59.02 22 57.04 22 55 C20.35 55 18.7 55 17 55 C17 55.66 17 56.32 17 57 C14.03 57.495 14.03 57.495 11 58 C10.938125 56.741875 10.87625 55.48375 10.8125 54.1875 C10.61479712 51.99662023 10.61479712 51.99662023 10 50 C7.59256899 47.93545998 7.59256899 47.93545998 5 47 C5.33 44.69 5.66 42.38 6 40 C5.01 40 4.02 40 3 40 C3 39.34 3 38.68 3 38 C1.68 38 0.36 38 -1 38 C-1 37.34 -1 36.68 -1 36 C0.2065625 35.071875 0.2065625 35.071875 1.4375 34.125 C4.03064129 31.97459015 4.65220835 31.24605542 5 28 C4.01 28 3.02 28 2 28 C2 25.69 2 23.38 2 21 C2.66 20.67 3.32 20.34 4 20 C3.34 19.54625 2.68 19.0925 2 18.625 C1.34 18.08875 0.68 17.5525 0 17 C0 16.34 0 15.68 0 15 C-3.63 14.67 -7.26 14.34 -11 14 C-11 16.31 -11 18.62 -11 21 C-10.34 21 -9.68 21 -9 21 C-8.938125 21.61875 -8.87625 22.2375 -8.8125 22.875 C-8.17948312 25.25602845 -8.17948312 25.25602845 -5.5625 26.1875 C-4.716875 26.455625 -3.87125 26.72375 -3 27 C-2.34 27.33 -1.68 27.66 -1 28 C-1.33 29.32 -1.66 30.64 -2 32 C-2.80824219 31.98839844 -3.61648437 31.97679688 -4.44921875 31.96484375 C-6.05216797 31.95130859 -6.05216797 31.95130859 -7.6875 31.9375 C-9.27111328 31.92009766 -9.27111328 31.92009766 -10.88671875 31.90234375 C-13.72410262 31.99134575 -16.2438919 32.35060162 -19 33 C-15.80009492 30.25722422 -12.99500618 28.3697164 -9 27 C-9 26.34 -9 25.68 -9 25 C-9.99 24.67 -10.98 24.34 -12 24 C-14.08011219 21.29585415 -13.99164948 19.83855664 -13.8125 16.375 C-13 13 -13 13 -10 11 C-6.45776514 11.31627097 -3.37355726 11.87548091 0 13 C-0.12568359 12.09507813 -0.12568359 12.09507813 -0.25390625 11.171875 C-0.35574219 10.37265625 -0.45757813 9.5734375 -0.5625 8.75 C-0.66691406 7.96109375 -0.77132813 7.1721875 -0.87890625 6.359375 C-1.00027349 3.99467126 -0.69633257 2.2488963 0 0 Z M17 31 C15.82732667 34.9577725 15.55285808 37.04183875 17.3125 40.8125 C20.03213712 44.42505622 20.03213712 44.42505622 24.375 45.5 C28.16517231 45.3550189 28.16517231 45.3550189 30.5 42.4375 C32.31034027 38.28880355 32.27868136 36.31554958 31 32 C29.00176254 29.21674068 27.9467773 28.16993439 24.5625 27.5625 C21.2932843 28.12065878 19.52842865 28.822742 17 31 Z " fill="#F3951C" transform="translate(32,17)"/>
<path d="M0 0 C0.33 1.32 0.66 2.64 1 4 C2.65 4.33 4.3 4.66 6 5 C6 5.66 6 6.32 6 7 C8.64 7 11.28 7 14 7 C14 7.66 14 8.32 14 9 C14.99 9 15.98 9 17 9 C16.67 10.32 16.34 11.64 16 13 C14.68 13.33 13.36 13.66 12 14 C11.67 15.98 11.34 17.96 11 20 C10.34 20 9.68 20 9 20 C9 21.65 9 23.3 9 25 C10.60463449 24.68991116 12.20869231 24.37683713 13.8125 24.0625 C14.70582031 23.88847656 15.59914063 23.71445313 16.51953125 23.53515625 C19.11397171 23.02258847 19.11397171 23.02258847 22 22 C21.814375 21.195625 21.62875 20.39125 21.4375 19.5625 C21.293125 18.716875 21.14875 17.87125 21 17 C22 16 22 16 24.5625 15.9375 C25.366875 15.958125 26.17125 15.97875 27 16 C30.02272727 25.63494318 30.02272727 25.63494318 28 30.3125 C27.67 30.869375 27.34 31.42625 27 32 C27.66 32 28.32 32 29 32 C29 31.01 29 30.02 29 29 C31.64 29.33 34.28 29.66 37 30 C38.42258812 33.82320557 39.24042276 36.91281305 39 41 C39.66 41 40.32 41 41 41 C41 41.66 41 42.32 41 43 C42.98 43 44.96 43 47 43 C47.33 38.05 47.66 33.1 48 28 C53.625 26.875 53.625 26.875 57 29 C56.67 30.32 56.34 31.64 56 33 C56.66 33 57.32 33 58 33 C58.33 33.66 58.66 34.32 59 35 C60.65 35.66 62.3 36.32 64 37 C63.01 29.575 63.01 29.575 62 22 C63.65 22 65.3 22 67 22 C67.33 22.33 67.66 22.66 68 23 C69.84891946 23.23363881 71.70488031 23.41303635 73.5625 23.5625 C74.57441406 23.64628906 75.58632812 23.73007813 76.62890625 23.81640625 C77.80259766 23.90728516 77.80259766 23.90728516 79 24 C78.72965366 21.56282742 78.72965366 21.56282742 78 19 C77.01 18.34 76.02 17.68 75 17 C74.8125 14.375 74.8125 14.375 75 12 C74.01 12 73.02 12 72 12 C72.33 11.01 72.66 10.02 73 9 C75.64 9 78.28 9 81 9 C79.68 9.99 78.36 10.98 77 12 C77.3609375 12.43570313 77.721875 12.87140625 78.09375 13.3203125 C80.4490528 16.3429511 81.89083171 18.4323249 82.625 22.25 C82 25 82 25 80.125 27 C75.4783517 28.48692746 71.62002745 27.24695887 67 26 C67.350625 27.19625 67.70125 28.3925 68.0625 29.625 C69.00313821 33.38755283 69.08290796 36.20982214 68 40 C66 42 66 42 63.3125 42.5 C58.6435754 41.79525666 56.27216497 39.25280305 53 36 C52.70867187 36.56589844 52.41734375 37.13179687 52.1171875 37.71484375 C48.76075281 43.72053978 48.76075281 43.72053978 44.9375 45.125 C41.87035187 44.99448306 40.5138345 44.70007776 38 43 C37.171875 40.8359375 37.171875 40.8359375 36.75 38.375 C36.60046875 37.55773437 36.4509375 36.74046875 36.296875 35.8984375 C36.19890625 35.27195313 36.1009375 34.64546875 36 34 C35.21625 34.78375 34.4325 35.5675 33.625 36.375 C29 41 29 41 25.0625 41.375 C22.23977467 41.2826199 21.27009196 41.19643052 18.9375 39.5 C17.22479871 34.93279656 18.49755126 30.50734623 20 26 C19.33613281 26.09539062 18.67226563 26.19078125 17.98828125 26.2890625 C8.49571493 27.48082995 8.49571493 27.48082995 5 25 C3.9375 22.75 3.9375 22.75 4 20 C5.8125 16.875 5.8125 16.875 8 14 C8.66 13.01 9.32 12.02 10 11 C9.44570313 10.73445313 8.89140625 10.46890625 8.3203125 10.1953125 C7.59585937 9.84210937 6.87140625 9.48890625 6.125 9.125 C5.40570312 8.77695312 4.68640625 8.42890625 3.9453125 8.0703125 C2 7 2 7 0 5 C-0.125 2.375 -0.125 2.375 0 0 Z " fill="#FBC03E" transform="translate(12,51)"/>
<path d="M0 0 C0.66 0 1.32 0 2 0 C2.33 1.65 2.66 3.3 3 5 C4.28777344 4.70802734 4.28777344 4.70802734 5.6015625 4.41015625 C9.32475161 3.96080584 11.7807398 4.43909439 15.375 5.4375 C16.43460938 5.72496094 17.49421875 6.01242188 18.5859375 6.30859375 C19.38257813 6.53675781 20.17921875 6.76492187 21 7 C21 8.32 21 9.64 21 11 C15.55106131 12.19876651 12.77830905 11.91360308 8 9 C7.67 9.99 7.34 10.98 7 12 C4.9375 13.1875 4.9375 13.1875 3 14 C3.33 15.65 3.66 17.3 4 19 C4.33 18.34 4.66 17.68 5 17 C5.66 17 6.32 17 7 17 C7 17.66 7 18.32 7 19 C8.65 19.33 10.3 19.66 12 20 C12.495 21.485 12.495 21.485 13 23 C13.99 23.66 14.98 24.32 16 25 C16.1875 27.625 16.1875 27.625 16 30 C4.47835991 30.3690205 4.47835991 30.3690205 -1 28 C-0.67 28.61875 -0.34 29.2375 0 29.875 C1.40387684 34.26211512 1.15967523 38.43151427 1 43 C-0.98 42.34 -2.96 41.68 -5 41 C-5 40.34 -5 39.68 -5 39 C-5.66 39 -6.32 39 -7 39 C-7 37.68 -7 36.36 -7 35 C-9.64 34.67 -12.28 34.34 -15 34 C-14.98839844 34.91523437 -14.97679687 35.83046875 -14.96484375 36.7734375 C-14.95582031 37.96195313 -14.94679688 39.15046875 -14.9375 40.375 C-14.92589844 41.55835938 -14.91429687 42.74171875 -14.90234375 43.9609375 C-15 47 -15 47 -16 49 C-17.98 49 -19.96 49 -22 49 C-22 48.34 -22 47.68 -22 47 C-22.66 47 -23.32 47 -24 47 C-24.12117188 46.28972656 -24.24234375 45.57945313 -24.3671875 44.84765625 C-24.53476562 43.92855469 -24.70234375 43.00945312 -24.875 42.0625 C-25.03742187 41.14597656 -25.19984375 40.22945312 -25.3671875 39.28515625 C-25.57601562 38.53105469 -25.78484375 37.77695313 -26 37 C-26.66 36.67 -27.32 36.34 -28 36 C-28 35.01 -28 34.02 -28 33 C-26.35 33 -24.7 33 -23 33 C-23 33.66 -23 34.32 -23 35 C-20.08369887 35.05749557 -20.08369887 35.05749557 -17 34 C-15.5073959 31.72555566 -14.85757989 29.62038301 -14 27 C-13.67 28.32 -13.34 29.64 -13 31 C-10.36 31.33 -7.72 31.66 -5 32 C-5 29.36 -5 26.72 -5 24 C-4.34 24 -3.68 24 -3 24 C-3 23.34 -3 22.68 -3 22 C-2.01 22 -1.02 22 0 22 C0.33 20.35 0.66 18.7 1 17 C0.34 17 -0.32 17 -1 17 C-1 15.68 -1 14.36 -1 13 C1.31 12.34 3.62 11.68 6 11 C5.505 9.515 5.505 9.515 5 8 C4.01 7.67 3.02 7.34 2 7 C2 6.34 2 5.68 2 5 C1.01 5 0.02 5 -1 5 C-0.67 3.35 -0.34 1.7 0 0 Z " fill="#FCBE36" transform="translate(75,45)"/>
<path d="M0 0 C1.258125 -0.020625 2.51625 -0.04125 3.8125 -0.0625 C4.52019531 -0.07410156 5.22789063 -0.08570312 5.95703125 -0.09765625 C9.73928394 0.08313977 11.53416273 1.3197421 14 4 C14.66 4.66 15.32 5.32 16 6 C15.67 6.99 15.34 7.98 15 9 C14.34 9 13.68 9 13 9 C13 11.97 13 14.94 13 18 C11.02 18.99 11.02 18.99 9 20 C9.18828772 22.44480079 9.18828772 22.44480079 10 25 C11.99386866 26.18468266 11.99386866 26.18468266 14 27 C13.9278125 27.74765625 13.855625 28.4953125 13.78125 29.265625 C13.64203125 30.74289063 13.64203125 30.74289063 13.5 32.25 C13.36078125 33.71179688 13.36078125 33.71179688 13.21875 35.203125 C13.04199832 37.46302153 13 39.73320193 13 42 C8.88307133 45.60231259 5.18419218 45.26360299 0 45 C-0.33 43.02 -0.66 41.04 -1 39 C-0.01 39.33 0.98 39.66 2 40 C2.0825 39.05125 2.165 38.1025 2.25 37.125 C2.62125 35.578125 2.62125 35.578125 3 34 C5 32.8125 5 32.8125 7 32 C7.33 31.01 7.66 30.02 8 29 C7.01 29 6.02 29 5 29 C5 28.34 5 27.68 5 27 C2.36 27 -0.28 27 -3 27 C-3.33 26.34 -3.66 25.68 -4 25 C-6.02463255 24.34786708 -6.02463255 24.34786708 -8 24 C-8 22.35 -8 20.7 -8 19 C-4.07142246 17.14868517 -1.01224888 16.77995057 3.3125 16.875 C4.38113281 16.89304687 5.44976562 16.91109375 6.55078125 16.9296875 C7.35902344 16.95289062 8.16726562 16.97609375 9 17 C9.33 16.01 9.66 15.02 10 14 C9.236875 13.731875 8.47375 13.46375 7.6875 13.1875 C5.11011382 12.04865495 3.73045136 11.18583329 2 9 C2 8.34 2 7.68 2 7 C1.34 7 0.68 7 0 7 C0 4.69 0 2.38 0 0 Z " fill="#F8C13F" transform="translate(21,31)"/>
<path d="M0 0 C0.33 0 0.66 0 1 0 C1.33 3.3 1.66 6.6 2 10 C2.66 10 3.32 10 4 10 C4 10.99 4 11.98 4 13 C4.66 13 5.32 13 6 13 C7.625 14.5 7.625 14.5 9 16 C9.33 15.67 9.66 15.34 10 15 C11.66617115 14.95936168 13.33388095 14.957279 15 15 C16.80411967 17.75924185 17.0127245 18.88972103 16.625 22.25 C16.41875 23.1575 16.2125 24.065 16 25 C16.99 25 17.98 25 19 25 C19 24.34 19 23.68 19 23 C26.48996458 21.64935065 26.48996458 21.64935065 29 23.375 C30 25 30 25 30 26 C24.72 26.33 19.44 26.66 14 27 C14 27.99 14 28.98 14 30 C13.34 30 12.68 30 12 30 C11.67 31.32 11.34 32.64 11 34 C8.69 34 6.38 34 4 34 C4.33 32.02 4.66 30.04 5 28 C4.01 28 3.02 28 2 28 C2 25.69 2 23.38 2 21 C2.66 20.67 3.32 20.34 4 20 C3.34 19.54625 2.68 19.0925 2 18.625 C1.34 18.08875 0.68 17.5525 0 17 C0 16.34 0 15.68 0 15 C-3.63 14.67 -7.26 14.34 -11 14 C-11 16.31 -11 18.62 -11 21 C-10.34 21 -9.68 21 -9 21 C-8.938125 21.61875 -8.87625 22.2375 -8.8125 22.875 C-8.17948312 25.25602845 -8.17948312 25.25602845 -5.5625 26.1875 C-4.716875 26.455625 -3.87125 26.72375 -3 27 C-2.34 27.33 -1.68 27.66 -1 28 C-1.33 29.32 -1.66 30.64 -2 32 C-2.80824219 31.98839844 -3.61648437 31.97679688 -4.44921875 31.96484375 C-6.05216797 31.95130859 -6.05216797 31.95130859 -7.6875 31.9375 C-9.27111328 31.92009766 -9.27111328 31.92009766 -10.88671875 31.90234375 C-13.72410262 31.99134575 -16.2438919 32.35060162 -19 33 C-15.80009492 30.25722422 -12.99500618 28.3697164 -9 27 C-9 26.34 -9 25.68 -9 25 C-9.99 24.67 -10.98 24.34 -12 24 C-14.08011219 21.29585415 -13.99164948 19.83855664 -13.8125 16.375 C-13 13 -13 13 -10 11 C-6.45776514 11.31627097 -3.37355726 11.87548091 0 13 C-0.12568359 12.09507813 -0.12568359 12.09507813 -0.25390625 11.171875 C-0.35574219 10.37265625 -0.45757813 9.5734375 -0.5625 8.75 C-0.66691406 7.96109375 -0.77132813 7.1721875 -0.87890625 6.359375 C-1.00027349 3.99467126 -0.69633257 2.2488963 0 0 Z " fill="#F49323" transform="translate(32,17)"/>
<path d="M0 0 C2.64 0 5.28 0 8 0 C6.68 0.99 5.36 1.98 4 3 C4.54140625 3.65355469 4.54140625 3.65355469 5.09375 4.3203125 C7.4490528 7.3429511 8.89083171 9.4323249 9.625 13.25 C9 16 9 16 7.125 18 C2.4783517 19.48692746 -1.37997255 18.24695887 -6 17 C-5.649375 18.19625 -5.29875 19.3925 -4.9375 20.625 C-3.99686179 24.38755283 -3.91709204 27.20982214 -5 31 C-7 33 -7 33 -9.6875 33.5 C-14.3564246 32.79525666 -16.72783503 30.25280305 -20 27 C-20.29132813 27.56589844 -20.58265625 28.13179687 -20.8828125 28.71484375 C-24.23924719 34.72053978 -24.23924719 34.72053978 -28.0625 36.125 C-31.12964813 35.99448306 -32.4861655 35.70007776 -35 34 C-35.828125 31.8359375 -35.828125 31.8359375 -36.25 29.375 C-36.47429688 28.14910156 -36.47429688 28.14910156 -36.703125 26.8984375 C-36.80109375 26.27195312 -36.8990625 25.64546875 -37 25 C-37.66 25 -38.32 25 -39 25 C-39 23.68 -39 22.36 -39 21 C-37.68 21.33 -36.36 21.66 -35 22 C-34.67 25.3 -34.34 28.6 -34 32 C-33.34 32 -32.68 32 -32 32 C-32 32.66 -32 33.32 -32 34 C-30.02 34 -28.04 34 -26 34 C-25.67 29.05 -25.34 24.1 -25 19 C-19.375 17.875 -19.375 17.875 -16 20 C-16.33 21.32 -16.66 22.64 -17 24 C-16.34 24 -15.68 24 -15 24 C-14.67 24.66 -14.34 25.32 -14 26 C-12.35 26.66 -10.7 27.32 -9 28 C-9.66 23.05 -10.32 18.1 -11 13 C-9.35 13 -7.7 13 -6 13 C-5.505 13.495 -5.505 13.495 -5 14 C-3.15108054 14.23363881 -1.29511969 14.41303635 0.5625 14.5625 C1.57441406 14.64628906 2.58632812 14.73007813 3.62890625 14.81640625 C4.41136719 14.87699219 5.19382813 14.93757813 6 15 C5.72965366 12.56282742 5.72965366 12.56282742 5 10 C4.01 9.34 3.02 8.68 2 8 C1.8125 5.375 1.8125 5.375 2 3 C1.01 3 0.02 3 -1 3 C-0.67 2.01 -0.34 1.02 0 0 Z " fill="#DBA758" transform="translate(85,60)"/>
<path d="M0 0 C0.99 0 1.98 0 3 0 C2.67 1.65 2.34 3.3 2 5 C1.34 5 0.68 5 0 5 C-0.33 5.99 -0.66 6.98 -1 8 C-1.66 8 -2.32 8 -3 8 C-3 8.66 -3 9.32 -3 10 C-1.68 10 -0.36 10 1 10 C1 10.66 1 11.32 1 12 C1.99 12 2.98 12 4 12 C3.8453125 13.6396875 3.8453125 13.6396875 3.6875 15.3125 C3.790625 16.529375 3.89375 17.74625 4 19 C4.825 19.474375 5.65 19.94875 6.5 20.4375 C7.325 20.953125 8.15 21.46875 9 22 C9.47403622 24.78844835 9.233723 27.14857943 9 30 C10.98 29.67 12.96 29.34 15 29 C15 28.34 15 27.68 15 27 C16.65 27 18.3 27 20 27 C20 28.98 20 30.96 20 33 C22.66735273 30.51047079 24.55746343 28.36591866 26 25 C27.32 25 28.64 25 30 25 C30 26.65 30 28.3 30 30 C31.32 30 32.64 30 34 30 C34 27.69 34 25.38 34 23 C35.32 23.33 36.64 23.66 38 24 C37.34 24 36.68 24 36 24 C36 26.64 36 29.28 36 32 C30.375 32.25 30.375 32.25 27 30 C26.67 30.825 26.34 31.65 26 32.5 C24 35 24 35 22.01953125 35.33203125 C20.01004942 35.31424822 18.0028436 35.16416751 16 35 C16 34.34 16 33.68 16 33 C15.01 33 14.02 33 13 33 C13 33.99 13 34.98 13 36 C11.02 35.67 9.04 35.34 7 35 C7 35.99 7 36.98 7 38 C6.34 38 5.68 38 5 38 C5.08378906 37.34773438 5.16757812 36.69546875 5.25390625 36.0234375 C5.82554104 31.11750856 6.15311982 26.86872815 5 22 C3.35 22 1.7 22 0 22 C-1.15941038 18.52176885 -0.70820884 16.54104422 0 13 C-1.32 12.34 -2.64 11.68 -4 11 C-4.1875 8.625 -4.1875 8.625 -4 6 C-3.01 5.34 -2.02 4.68 -1 4 C-0.27617533 1.94074861 -0.27617533 1.94074861 0 0 Z " fill="#F7A721" transform="translate(34,45)"/>
<path d="M0 0 C2.18975773 3.28463659 2.99806563 6.20696275 4 10 C4.763125 9.38125 5.52625 8.7625 6.3125 8.125 C11.44104803 4.069869 11.44104803 4.069869 15 3.625 C18 4 18 4 19.9375 5.5625 C21.45032652 9.03310202 20.73695557 11.31522213 20 15 C19.80074012 16.47762843 19.61307902 17.95687098 19.4375 19.4375 C19.293125 20.613125 19.14875 21.78875 19 23 C17.35 23.33 15.7 23.66 14 24 C14.99 18.39 15.98 12.78 17 7 C15.02 7 13.04 7 11 7 C11 7.66 11 8.32 11 9 C10.071875 9.12375 10.071875 9.12375 9.125 9.25 C6.81562433 9.81258459 6.81562433 9.81258459 5.75 12.0625 C5.5025 12.701875 5.255 13.34125 5 14 C4.34 14 3.68 14 3 14 C3 14.99 3 15.98 3 17 C2.34 17 1.68 17 1 17 C0.67 12.05 0.34 7.1 0 2 C-2.97 2 -5.94 2 -9 2 C-9.99 5.96 -10.98 9.92 -12 14 C-14.475 13.01 -14.475 13.01 -17 12 C-17 11.01 -17 10.02 -17 9 C-17.66 9 -18.32 9 -19 9 C-19 8.34 -19 7.68 -19 7 C-20.98 6.34 -22.96 5.68 -25 5 C-25 5.66 -25 6.32 -25 7 C-25.99 6.67 -26.98 6.34 -28 6 C-26 4 -26 4 -23.125 3.625 C-19.31827215 4.08180734 -18.47026259 5.18901153 -16 8 C-15.01 8.33 -14.02 8.66 -13 9 C-12.938125 8.0925 -12.87625 7.185 -12.8125 6.25 C-12 3 -12 3 -9.875 0.5625 C-6.09657635 -1.49099112 -4.08418622 -1.15590176 0 0 Z " fill="#734D3A" transform="translate(61,10)"/>
<path d="M0 0 C0.66 0 1.32 0 2 0 C2 0.66 2 1.32 2 2 C3.65 2.33 5.3 2.66 7 3 C7.33 3.99 7.66 4.98 8 6 C8.99 6.66 9.98 7.32 11 8 C11.1875 10.625 11.1875 10.625 11 13 C-0.52164009 13.3690205 -0.52164009 13.3690205 -6 11 C-5.505 11.928125 -5.505 11.928125 -5 12.875 C-3.59612316 17.26211512 -3.84032477 21.43151427 -4 26 C-5.98 25.34 -7.96 24.68 -10 24 C-10 23.34 -10 22.68 -10 22 C-10.66 22 -11.32 22 -12 22 C-11.6875 20.0625 -11.6875 20.0625 -11 18 C-10.01 17.67 -9.02 17.34 -8 17 C-7.67 17.33 -7.34 17.66 -7 18 C-6.67 17.01 -6.34 16.02 -6 15 C-6.66 15 -7.32 15 -8 15 C-8.625 13.1875 -8.625 13.1875 -9 11 C-8.34 10.01 -7.68 9.02 -7 8 C-3.875 7.8125 -3.875 7.8125 -1 8 C-1 7.34 -1 6.68 -1 6 C-0.01 6 0.98 6 2 6 C2 5.01 2 4.02 2 3 C1.34 3 0.68 3 0 3 C0 2.01 0 1.02 0 0 Z " fill="#F7C14D" transform="translate(80,62)"/>
<path d="M0 0 C0.33 1.32 0.66 2.64 1 4 C2.65 4.33 4.3 4.66 6 5 C6 5.66 6 6.32 6 7 C8.64 7 11.28 7 14 7 C14 7.66 14 8.32 14 9 C14.99 9 15.98 9 17 9 C16.67 10.32 16.34 11.64 16 13 C14.68 13.33 13.36 13.66 12 14 C11.67 15.98 11.34 17.96 11 20 C10.34 20 9.68 20 9 20 C9 21.65 9 23.3 9 25 C15.435 24.505 15.435 24.505 22 24 C21.855625 24.99 21.71125 25.98 21.5625 27 C20.99074821 30.99409465 20.49180166 34.99532937 20 39 C19.34 38.34 18.68 37.68 18 37 C18.31396243 33.04407344 18.74827818 29.75516546 20 26 C19.33613281 26.09539062 18.67226563 26.19078125 17.98828125 26.2890625 C8.49571493 27.48082995 8.49571493 27.48082995 5 25 C3.9375 22.75 3.9375 22.75 4 20 C5.8125 16.875 5.8125 16.875 8 14 C8.66 13.01 9.32 12.02 10 11 C9.44570313 10.73445313 8.89140625 10.46890625 8.3203125 10.1953125 C7.59585937 9.84210937 6.87140625 9.48890625 6.125 9.125 C5.40570312 8.77695312 4.68640625 8.42890625 3.9453125 8.0703125 C2 7 2 7 0 5 C-0.125 2.375 -0.125 2.375 0 0 Z " fill="#B88C5A" transform="translate(12,51)"/>
<path d="M0 0 C-0.34565591 5.87615054 -1.6603206 8.10541593 -6 12 C-6 12.66 -6 13.32 -6 14 C-4.93458984 14.45439453 -4.93458984 14.45439453 -3.84765625 14.91796875 C-2.46900391 15.54638672 -2.46900391 15.54638672 -1.0625 16.1875 C-0.14597656 16.59355469 0.77054688 16.99960937 1.71484375 17.41796875 C4 19 4 19 4.87890625 21.55078125 C5 24 5 24 4 26 C3.34 26 2.68 26 2 26 C2 24.02 2 22.04 2 20 C-2.97361654 18.24265549 -7.7415998 16.67415387 -13 16 C-13 15.01 -13 14.02 -13 13 C-11.35 12.67 -9.7 12.34 -8 12 C-8.020625 10.88625 -8.04125 9.7725 -8.0625 8.625 C-8 5 -8 5 -7 3 C-8.98 3 -10.96 3 -13 3 C-13 2.01 -13 1.02 -13 0 C-13.66 -0.33 -14.32 -0.66 -15 -1 C-9.92717163 -2.69094279 -4.49272587 -2.99515058 0 0 Z " fill="#D1A85F" transform="translate(95,32)"/>
<path d="M0 0 C0.66 0.33 1.32 0.66 2 1 C1.85936865 3.29199177 1.71234057 5.58359186 1.5625 7.875 C1.48128906 9.15117188 1.40007813 10.42734375 1.31640625 11.7421875 C1 15 1 15 0 17 C-1.98 17 -3.96 17 -6 17 C-6 16.34 -6 15.68 -6 15 C-6.66 15 -7.32 15 -8 15 C-8.12117188 14.28972656 -8.24234375 13.57945313 -8.3671875 12.84765625 C-8.53476562 11.92855469 -8.70234375 11.00945312 -8.875 10.0625 C-9.03742187 9.14597656 -9.19984375 8.22945312 -9.3671875 7.28515625 C-9.57601562 6.53105469 -9.78484375 5.77695313 -10 5 C-10.66 4.67 -11.32 4.34 -12 4 C-12 3.01 -12 2.02 -12 1 C-10.35 1 -8.7 1 -7 1 C-7 1.66 -7 2.32 -7 3 C-4.02934491 2.65772428 -4.02934491 2.65772428 -1 2 C-0.67 1.34 -0.34 0.68 0 0 Z " fill="#FABE40" transform="translate(59,77)"/>
<path d="M0 0 C0.33 0 0.66 0 1 0 C1.33 4.95 1.66 9.9 2 15 C-2.29 14.67 -6.58 14.34 -11 14 C-11 16.31 -11 18.62 -11 21 C-10.34 21 -9.68 21 -9 21 C-8.938125 21.61875 -8.87625 22.2375 -8.8125 22.875 C-8.17948312 25.25602845 -8.17948312 25.25602845 -5.5625 26.1875 C-4.716875 26.455625 -3.87125 26.72375 -3 27 C-2.34 27.33 -1.68 27.66 -1 28 C-1.33 29.32 -1.66 30.64 -2 32 C-2.80824219 31.98839844 -3.61648437 31.97679688 -4.44921875 31.96484375 C-6.05216797 31.95130859 -6.05216797 31.95130859 -7.6875 31.9375 C-9.27111328 31.92009766 -9.27111328 31.92009766 -10.88671875 31.90234375 C-13.72410262 31.99134575 -16.2438919 32.35060162 -19 33 C-15.80009492 30.25722422 -12.99500618 28.3697164 -9 27 C-9 26.34 -9 25.68 -9 25 C-9.99 24.67 -10.98 24.34 -12 24 C-14.08011219 21.29585415 -13.99164948 19.83855664 -13.8125 16.375 C-13 13 -13 13 -10 11 C-6.45776514 11.31627097 -3.37355726 11.87548091 0 13 C-0.12568359 12.09507813 -0.12568359 12.09507813 -0.25390625 11.171875 C-0.35574219 10.37265625 -0.45757813 9.5734375 -0.5625 8.75 C-0.66691406 7.96109375 -0.77132813 7.1721875 -0.87890625 6.359375 C-1.00027349 3.99467126 -0.69633257 2.2488963 0 0 Z " fill="#B18252" transform="translate(32,17)"/>
<path d="M0 0 C0.7734375 -0.00257812 1.546875 -0.00515625 2.34375 -0.0078125 C4.5 0.125 4.5 0.125 7.5 1.125 C10.31455436 5.71716764 9.68140244 10.93487459 9.5 16.125 C8.84 16.125 8.18 16.125 7.5 16.125 C7.5 16.785 7.5 17.445 7.5 18.125 C5.02621876 19.36189062 3.32084683 19.25810087 0.5625 19.25 C-0.31277344 19.25257812 -1.18804687 19.25515625 -2.08984375 19.2578125 C-4.5 19.125 -4.5 19.125 -7.5 18.125 C-7.5 17.465 -7.5 16.805 -7.5 16.125 C-8.16 16.125 -8.82 16.125 -9.5 16.125 C-11.03227504 11.52817487 -11.22063065 7.70352428 -9.1875 3.25 C-6.58289158 -0.02987727 -3.94466815 -0.01314889 0 0 Z M-7.5 4.125 C-8.67267333 8.0827725 -8.94714192 10.16683875 -7.1875 13.9375 C-4.46786288 17.55005622 -4.46786288 17.55005622 -0.125 18.625 C3.66517231 18.4800189 3.66517231 18.4800189 6 15.5625 C7.81034027 11.41380355 7.77868136 9.44054958 6.5 5.125 C4.50176254 2.34174068 3.4467773 1.29493439 0.0625 0.6875 C-3.2067157 1.24565878 -4.97157135 1.947742 -7.5 4.125 Z " fill="#842612" transform="translate(56.5,43.875)"/>
<path d="M0 0 C0.99 0.33 1.98 0.66 3 1 C2.67 4.96 2.34 8.92 2 13 C-0.64 13 -3.28 13 -6 13 C-5.67 11.02 -5.34 9.04 -5 7 C-5.99 7 -6.98 7 -8 7 C-8 5.35 -8 3.7 -8 2 C-5.36 2 -2.72 2 0 2 C0 1.34 0 0.68 0 0 Z " fill="#FD9C1D" transform="translate(42,38)"/>
<path d="M0 0 C0.70189453 0.00451172 1.40378906 0.00902344 2.12695312 0.01367188 C3.85550538 0.02543073 5.58401365 0.04336546 7.3125 0.0625 C6.9825 0.7225 6.6525 1.3825 6.3125 2.0625 C1.6925 2.0625 -2.9275 2.0625 -7.6875 2.0625 C-8.0175 3.3825 -8.3475 4.7025 -8.6875 6.0625 C-9.0175 6.3925 -9.3475 6.7225 -9.6875 7.0625 C-9.75955511 8.74858966 -9.77136068 10.43750659 -9.75 12.125 C-9.74097656 13.04410156 -9.73195312 13.96320312 -9.72265625 14.91015625 C-9.71105469 15.62042969 -9.69945312 16.33070312 -9.6875 17.0625 C-9.0275 17.0625 -8.3675 17.0625 -7.6875 17.0625 C-7.6875 17.7225 -7.6875 18.3825 -7.6875 19.0625 C-3.3975 19.3925 0.8925 19.7225 5.3125 20.0625 C1.31014065 22.73073957 -1.98131916 22.77607255 -6.6875 22.0625 C-9.25 20.1875 -9.25 20.1875 -10.6875 18.0625 C-10.6875 17.4025 -10.6875 16.7425 -10.6875 16.0625 C-11.3475 16.0625 -12.0075 16.0625 -12.6875 16.0625 C-12.6875 12.1025 -12.6875 8.1425 -12.6875 4.0625 C-12.0275 4.0625 -11.3675 4.0625 -10.6875 4.0625 C-10.6875 3.0725 -10.6875 2.0825 -10.6875 1.0625 C-7.06882441 -0.1437252 -3.76243749 -0.04566918 0 0 Z " fill="#C56225" transform="translate(56.6875,42.9375)"/>
<path d="M0 0 C0.99 0 1.98 0 3 0 C2.67 1.65 2.34 3.3 2 5 C1.34 5 0.68 5 0 5 C-0.33 5.99 -0.66 6.98 -1 8 C-1.66 8 -2.32 8 -3 8 C-3 8.66 -3 9.32 -3 10 C-1.68 10 -0.36 10 1 10 C1 10.66 1 11.32 1 12 C1.99 12 2.98 12 4 12 C3.8453125 13.6396875 3.8453125 13.6396875 3.6875 15.3125 C3.790625 16.529375 3.89375 17.74625 4 19 C4.825 19.474375 5.65 19.94875 6.5 20.4375 C7.325 20.953125 8.15 21.46875 9 22 C9.47403622 24.78844835 9.233723 27.14857943 9 30 C10.32 30.33 11.64 30.66 13 31 C12.01 31.33 11.02 31.66 10 32 C9.34 31.67 8.68 31.34 8 31 C8 28.36 8 25.72 8 23 C5.36 22.67 2.72 22.34 0 22 C-1.15941038 18.52176885 -0.70820884 16.54104422 0 13 C-1.32 12.34 -2.64 11.68 -4 11 C-4.1875 8.625 -4.1875 8.625 -4 6 C-3.01 5.34 -2.02 4.68 -1 4 C-0.27617533 1.94074861 -0.27617533 1.94074861 0 0 Z " fill="#F4A624" transform="translate(34,45)"/>
<path d="M0 0 C1.9375 1.5625 1.9375 1.5625 3 4 C2.75 7.25 2.75 7.25 2 11 C1.80074012 12.47762843 1.61307902 13.95687098 1.4375 15.4375 C1.2209375 17.2009375 1.2209375 17.2009375 1 19 C-0.65 19.33 -2.3 19.66 -4 20 C-3.01 14.39 -2.02 8.78 -1 3 C-2.98 3 -4.96 3 -7 3 C-7 3.66 -7 4.32 -7 5 C-7.66 5 -8.32 5 -9 5 C-9 4.01 -9 3.02 -9 2 C-5.52957297 -0.31361802 -4.08165827 -0.51020728 0 0 Z " fill="#B78E56" transform="translate(79,14)"/>
<path d="M0 0 C3.63 1.32 7.26 2.64 11 4 C11 4.33 11 4.66 11 5 C12.32 5 13.64 5 15 5 C14.67 5.66 14.34 6.32 14 7 C11.15649404 7.39593121 8.3351283 7.50849854 5.46875 7.65625 C4.24671875 7.82640625 4.24671875 7.82640625 3 8 C2.67 8.66 2.34 9.32 2 10 C2.99 10 3.98 10 5 10 C5 10.66 5 11.32 5 12 C3.35 11.67 1.7 11.34 0 11 C0 10.34 0 9.68 0 9 C-0.66 9 -1.32 9 -2 9 C-2.33 9.99 -2.66 10.98 -3 12 C-3.66 11.34 -4.32 10.68 -5 10 C-4.625 7.375 -4.625 7.375 -4 5 C-2.68 4.67 -1.36 4.34 0 4 C0 2.68 0 1.36 0 0 Z " fill="#EEAC45" transform="translate(82,53)"/>
<path d="M0 0 C1.125 4.75 1.125 4.75 0 7 C1.65 7 3.3 7 5 7 C5 7.66 5 8.32 5 9 C4.34 9 3.68 9 3 9 C2.67 10.65 2.34 12.3 2 14 C0.68 14 -0.64 14 -2 14 C-2.0928125 12.1128125 -2.0928125 12.1128125 -2.1875 10.1875 C-2.38370156 7.98845765 -2.38370156 7.98845765 -3 6 C-5.46115547 4.15565651 -5.46115547 4.15565651 -8 3 C-8 2.01 -8 1.02 -8 0 C-5.13822943 -1.43088528 -3.06624227 -0.59991697 0 0 Z " fill="#F1970A" transform="translate(45,61)"/>
<path d="M0 0 C2.84750831 2.84750831 3.37198804 6.14221223 4 10 C3.8843109 14.74325315 1.33747925 18.72432592 -2 22 C-5.3125 22.9375 -5.3125 22.9375 -8 23 C-7.01 22.67 -6.02 22.34 -5 22 C-5 21.34 -5 20.68 -5 20 C-4.34 20 -3.68 20 -3 20 C-3 19.34 -3 18.68 -3 18 C-2.34 18 -1.68 18 -1 18 C-1.14204741 16.41632253 -1.28880153 14.83306682 -1.4375 13.25 C-1.51871094 12.36828125 -1.59992188 11.4865625 -1.68359375 10.578125 C-1.96238465 8.30649548 -2.38790577 6.20148177 -3 4 C-2.34 4 -1.68 4 -1 4 C-0.67 2.68 -0.34 1.36 0 0 Z " fill="#EA872E" transform="translate(67,42)"/>
<path d="M0 0 C1.125 6.625 1.125 6.625 0 10 C-2.64 10.33 -5.28 10.66 -8 11 C-8.48635236 4.67741935 -8.48635236 4.67741935 -6.25 1.5625 C-4 0 -4 0 0 0 Z " fill="#FCC047" transform="translate(59,17)"/>
<path d="M0 0 C1.60725635 3.21451269 1.05748185 6.43612536 1 10 C0.34 10 -0.32 10 -1 10 C-1.33 8.35 -1.66 6.7 -2 5 C-3.98 5.33 -5.96 5.66 -8 6 C-8.33 6.99 -8.66 7.98 -9 9 C-9.33 9 -9.66 9 -10 9 C-10.35807422 2.67402207 -10.35807422 2.67402207 -8.9375 0 C-5.80758074 -1.6154422 -3.31825907 -0.79884015 0 0 Z " fill="#EDBF5B" transform="translate(61,12)"/>
<path d="M0 0 C2.97 0.495 2.97 0.495 6 1 C6.9765625 7.0546875 6.9765625 7.0546875 7 9 C6.34 9.66 5.68 10.32 5 11 C4.67 11.66 4.34 12.32 4 13 C3.34 13 2.68 13 2 13 C1.67 11.68 1.34 10.36 1 9 C0.34 9 -0.32 9 -1 9 C-0.67 6.03 -0.34 3.06 0 0 Z " fill="#FBC140" transform="translate(37,21)"/>
<path d="M0 0 C0.66 0 1.32 0 2 0 C2 0.99 2 1.98 2 3 C2.66 3 3.32 3 4 3 C6.125 4.625 6.125 4.625 8 7 C8.25 10.25 8.25 10.25 8 13 C5.125 13.125 5.125 13.125 2 13 C1.34 12.34 0.68 11.68 0 11 C0.66 10.67 1.32 10.34 2 10 C1.34 9.54625 0.68 9.0925 0 8.625 C-0.66 8.08875 -1.32 7.5525 -2 7 C-2 6.34 -2 5.68 -2 5 C-1.34 5 -0.68 5 0 5 C0 3.35 0 1.7 0 0 Z " fill="#FBB72B" transform="translate(34,27)"/>
<path d="M0 0 C1.38076179 3.83544942 0.85712183 7.07152497 0 11 C-1.5625 12.9375 -1.5625 12.9375 -3 14 C-3.268125 13.21625 -3.53625 12.4325 -3.8125 11.625 C-4.84814432 8.71885077 -4.84814432 8.71885077 -8 7 C-7.34 6.67 -6.68 6.34 -6 6 C-5.67 5.01 -5.34 4.02 -5 3 C-5.99 3 -6.98 3 -8 3 C-8 2.34 -8 1.68 -8 1 C-5.07175348 0.02391783 -3.04386724 -0.08226668 0 0 Z " fill="#F8AE3D" transform="translate(34,57)"/>
<path d="M0 0 C2.20004472 0.41780398 4.38631928 0.9093008 6.5625 1.4375 C7.76003906 1.72496094 8.95757812 2.01242188 10.19140625 2.30859375 C11.11824219 2.53675781 12.04507813 2.76492187 13 3 C13 4.32 13 5.64 13 7 C8.97217261 7.88612202 6.55842619 8.19648329 2.625 6.8125 C0 5 0 5 -0.9375 2.875 C-0.958125 2.25625 -0.97875 1.6375 -1 1 C-0.67 0.67 -0.34 0.34 0 0 Z " fill="#FAC147" transform="translate(83,49)"/>
<path d="M0 0 C1.65 0 3.3 0 5 0 C5 0.66 5 1.32 5 2 C5.66 2 6.32 2 7 2 C7 5.96 7 9.92 7 14 C8.65 14 10.3 14 12 14 C12 14.66 12 15.32 12 16 C10.02 16 8.04 16 6 16 C6 15.34 6 14.68 6 14 C5.34 14 4.68 14 4 14 C3.87882812 13.28972656 3.75765625 12.57945313 3.6328125 11.84765625 C3.46523438 10.92855469 3.29765625 10.00945312 3.125 9.0625 C2.96257813 8.14597656 2.80015625 7.22945313 2.6328125 6.28515625 C2.42398438 5.53105469 2.21515625 4.77695313 2 4 C1.34 3.67 0.68 3.34 0 3 C0 2.01 0 1.02 0 0 Z " fill="#E8B34B" transform="translate(47,78)"/>
<path d="M0 0 C0.99 0 1.98 0 3 0 C3 2.64 3 5.28 3 8 C4.32 8 5.64 8 7 8 C7.33 7.34 7.66 6.68 8 6 C9.65 6.33 11.3 6.66 13 7 C12.67 8.65 12.34 10.3 12 12 C11.67 11.34 11.34 10.68 11 10 C10.01 10 9.02 10 8 10 C8 10.99 8 11.98 8 13 C5.03 12.505 5.03 12.505 2 12 C2 12.99 2 13.98 2 15 C1.34 15 0.68 15 0 15 C0.08378906 14.33613281 0.16757812 13.67226562 0.25390625 12.98828125 C1.05425042 6.45279152 1.05425042 6.45279152 0 0 Z " fill="#FAB933" transform="translate(39,68)"/>
<path d="M0 0 C0.33 0.66 0.66 1.32 1 2 C1.99 2 2.98 2 4 2 C5.41755436 9.99295713 5.41755436 9.99295713 3.9375 13.5625 C1.24851919 15.55755028 -0.73900957 15.28986582 -4 15 C-4 14.67 -4 14.34 -4 14 C-2.35 14 -0.7 14 1 14 C1 13.34 1 12.68 1 12 C-0.65 11.67 -2.3 11.34 -4 11 C-4 10.34 -4 9.68 -4 9 C-2.68 9.33 -1.36 9.66 0 10 C0 6.7 0 3.4 0 0 Z " fill="#BB924C" transform="translate(76,78)"/>
<path d="M0 0 C0.33 0.66 0.66 1.32 1 2 C1.66 2 2.32 2 3 2 C2.67 2.7425 2.34 3.485 2 4.25 C0.77217129 7.13883312 0.77217129 7.13883312 1 11 C2.65 11 4.3 11 6 11 C6 11.66 6 12.32 6 13 C3.36 13 0.72 13 -2 13 C-2 13.66 -2 14.32 -2 15 C-2.66 15 -3.32 15 -4 15 C-4.16682272 10.07872966 -4.24828052 6.49656104 -2 2 C-1.34 2 -0.68 2 0 2 C0 1.34 0 0.68 0 0 Z " fill="#ECB959" transform="translate(36,75)"/>
<path d="M0 0 C0.66 0 1.32 0 2 0 C2.33 1.65 2.66 3.3 3 5 C4.32 5 5.64 5 7 5 C7 7.31 7 9.62 7 12 C6.360625 12.165 5.72125 12.33 5.0625 12.5 C2.83259021 13.76842467 2.83259021 13.76842467 2.6171875 15.84375 C2.49847905 17.26825141 2.41574192 18.69625842 2.37109375 20.125 C2.24863281 20.74375 2.12617187 21.3625 2 22 C1.01 22.66 0.02 23.32 -1 24 C-1.66 23.34 -2.32 22.68 -3 22 C-2.01 22 -1.02 22 0 22 C0.33 20.35 0.66 18.7 1 17 C0.34 17 -0.32 17 -1 17 C-1 15.68 -1 14.36 -1 13 C1.31 12.34 3.62 11.68 6 11 C5.67 10.01 5.34 9.02 5 8 C4.01 7.67 3.02 7.34 2 7 C2 6.34 2 5.68 2 5 C1.01 5 0.02 5 -1 5 C-0.67 3.35 -0.34 1.7 0 0 Z " fill="#F6A925" transform="translate(75,45)"/>
<path d="M0 0 C0 3 0 3 0 3 Z M-2 3 C-1.67 3.99 -1.34 4.98 -1 6 C-2.75 9.1875 -2.75 9.1875 -5 12 C-5.99 12 -6.98 12 -8 12 C-8 11.34 -8 10.68 -8 10 C-9.17369141 9.92652344 -9.17369141 9.92652344 -10.37109375 9.8515625 C-11.38300781 9.77679688 -12.39492188 9.70203125 -13.4375 9.625 C-14.95150391 9.52058594 -14.95150391 9.52058594 -16.49609375 9.4140625 C-17.32238281 9.27742188 -18.14867187 9.14078125 -19 9 C-19.33 8.34 -19.66 7.68 -20 7 C-11.585 6.505 -11.585 6.505 -3 6 C-2.67 5.01 -2.34 4.02 -2 3 Z " fill="#F68E28" transform="translate(68,58)"/>
<path d="M0 0 C0.66 0.33 1.32 0.66 2 1 C1.67 1.99 1.34 2.98 1 4 C1.71027344 4.30292969 2.42054687 4.60585938 3.15234375 4.91796875 C4.53099609 5.54638672 4.53099609 5.54638672 5.9375 6.1875 C7.31228516 6.79658203 7.31228516 6.79658203 8.71484375 7.41796875 C11 9 11 9 11.87890625 11.55078125 C12 14 12 14 11 16 C10.34 16 9.68 16 9 16 C9 14.02 9 12.04 9 10 C4.02638346 8.24265549 -0.7415998 6.67415387 -6 6 C-6 5.01 -6 4.02 -6 3 C-4.03533587 1.93224776 -2.03144641 0.93446535 0 0 Z " fill="#B27D3E" transform="translate(88,42)"/>
<path d="M0 0 C1.2065625 0.0309375 1.2065625 0.0309375 2.4375 0.0625 C3.0975 2.0425 3.7575 4.0225 4.4375 6.0625 C3.7775 6.7225 3.1175 7.3825 2.4375 8.0625 C1.4475 8.0625 0.4575 8.0625 -0.5625 8.0625 C-0.5625 8.7225 -0.5625 9.3825 -0.5625 10.0625 C-1.2225 10.0625 -1.8825 10.0625 -2.5625 10.0625 C-2.5625 9.4025 -2.5625 8.7425 -2.5625 8.0625 C-3.5525 7.7325 -4.5425 7.4025 -5.5625 7.0625 C-4.5725 6.7325 -3.5825 6.4025 -2.5625 6.0625 C-2.8409375 4.8559375 -2.8409375 4.8559375 -3.125 3.625 C-3.269375 2.779375 -3.41375 1.93375 -3.5625 1.0625 C-2.5625 0.0625 -2.5625 0.0625 0 0 Z " fill="#F9B148" transform="translate(36.5625,66.9375)"/>
<path d="M0 0 C0.33 0.66 0.66 1.32 1 2 C4.02934491 2.65772428 4.02934491 2.65772428 7 3 C7.28875 3.94875 7.5775 4.8975 7.875 5.875 C8.76825109 9.05211578 8.76825109 9.05211578 11 11 C9.02 11.99 9.02 11.99 7 13 C7 11.35 7 9.7 7 8 C4.69 8 2.38 8 0 8 C0 5.36 0 2.72 0 0 Z " fill="#FBB333" transform="translate(70,32)"/>
<path d="M0 0 C0.33 0 0.66 0 1 0 C1 3.3 1 6.6 1 10 C1.66 9.67 2.32 9.34 3 9 C4.99960012 8.960008 7.00047242 8.95653201 9 9 C8.67 9.99 8.34 10.98 8 12 C8 11.34 8 10.68 8 10 C6.68 10 5.36 10 4 10 C3.938125 10.61875 3.87625 11.2375 3.8125 11.875 C3 14 3 14 0.4375 15.25 C-0.366875 15.4975 -1.17125 15.745 -2 16 C-2.33 15.34 -2.66 14.68 -3 14 C-2.34 14 -1.68 14 -1 14 C-1.309375 13.071875 -1.61875 12.14375 -1.9375 11.1875 C-2.625 9.125 -3.3125 7.0625 -4 5 C-3.01 4.67 -2.02 4.34 -1 4 C-0.26676204 1.98491642 -0.26676204 1.98491642 0 0 Z " fill="#FBAF38" transform="translate(50,18)"/>
<path d="M0 0 C0.33 1.32 0.66 2.64 1 4 C2.65 4.33 4.3 4.66 6 5 C6 5.66 6 6.32 6 7 C8.64 7 11.28 7 14 7 C14 7.66 14 8.32 14 9 C14.99 9 15.98 9 17 9 C16.67 10.32 16.34 11.64 16 13 C14.68 13.33 13.36 13.66 12 14 C12 13.34 12 12.68 12 12 C12.66 12 13.32 12 14 12 C14 11.34 14 10.68 14 10 C13.40832031 9.97421875 12.81664062 9.9484375 12.20703125 9.921875 C8.18949677 9.63350385 5.48357406 9.27632803 1.9375 7.25 C0 5 0 5 -0.3125 2.25 C-0.209375 1.5075 -0.10625 0.765 0 0 Z " fill="#C19359" transform="translate(12,51)"/>
<path d="M0 0 C-0.99 0.495 -0.99 0.495 -2 1 C-2 1.66 -2 2.32 -2 3 C-2.56589844 3.12117188 -3.13179687 3.24234375 -3.71484375 3.3671875 C-4.81505859 3.61855469 -4.81505859 3.61855469 -5.9375 3.875 C-7.03384766 4.11863281 -7.03384766 4.11863281 -8.15234375 4.3671875 C-10.20700294 4.82961523 -10.20700294 4.82961523 -11 7 C-12.32 7 -13.64 7 -15 7 C-15 5.35 -15 3.7 -15 2 C-10.13948404 -0.59227518 -5.34728867 -0.18689553 0 0 Z " fill="#EDBA57" transform="translate(28,48)"/>
<path d="M0 0 C1.32 0.33 2.64 0.66 4 1 C4.33 4.3 4.66 7.6 5 11 C5.66 11 6.32 11 7 11 C7 11.66 7 12.32 7 13 C8.98 13 10.96 13 13 13 C13 12.34 13 11.68 13 11 C13.99 11.33 14.98 11.66 16 12 C13.38026734 14.61973266 11.64833578 14.70813314 8 15 C5.8828125 14.3046875 5.8828125 14.3046875 4 13 C3.171875 10.8359375 3.171875 10.8359375 2.75 8.375 C2.60046875 7.55773437 2.4509375 6.74046875 2.296875 5.8984375 C2.19890625 5.27195312 2.1009375 4.64546875 2 4 C1.34 4 0.68 4 0 4 C0 2.68 0 1.36 0 0 Z " fill="#9F764E" transform="translate(46,81)"/>
<path d="M0 0 C1.32 0.33 2.64 0.66 4 1 C3.34 1 2.68 1 2 1 C2.08701172 1.92232422 2.08701172 1.92232422 2.17578125 2.86328125 C2.31328488 5.32656059 2.36804047 7.55794325 2 10 C-0.5 12.0625 -0.5 12.0625 -3 13 C-3 12.34 -3 11.68 -3 11 C-3.99 10.67 -4.98 10.34 -6 10 C-5.360625 9.896875 -4.72125 9.79375 -4.0625 9.6875 C-3.0415625 9.3471875 -3.0415625 9.3471875 -2 9 C-1.67 8.01 -1.34 7.02 -1 6 C-3.475 5.01 -3.475 5.01 -6 4 C-6 3.67 -6 3.34 -6 3 C-4.02 3 -2.04 3 0 3 C0 2.01 0 1.02 0 0 Z " fill="#FBB744" transform="translate(32,39)"/>
<path d="M0 0 C1.77155654 0.11429397 3.54226229 0.24183037 5.3125 0.375 C6.79169922 0.47941406 6.79169922 0.47941406 8.30078125 0.5859375 C11 1 11 1 14 3 C13.625 5.9375 13.625 5.9375 13 9 C10.16730334 10.41634833 7.52533562 10.3463005 4.375 10.5625 C3.18648438 10.64628906 1.99796875 10.73007812 0.7734375 10.81640625 C-0.14179687 10.87699219 -1.05703125 10.93757813 -2 11 C-1.67 10.34 -1.34 9.68 -1 9 C1.1796875 8.62109375 1.1796875 8.62109375 3.875 8.4375 C6.86796839 8.22371654 9.1328687 7.95571043 12 7 C12 5.68 12 4.36 12 3 C10.14375 2.814375 10.14375 2.814375 8.25 2.625 C5.07606638 2.30760664 2.79374023 1.5478831 0 0 Z " fill="#EEB65A" transform="translate(84,49)"/>
<path d="M0 0 C1.9375 0.6875 1.9375 0.6875 2.9375 2.6875 C2.977492 4.68710012 2.98096799 6.68797242 2.9375 8.6875 C0.9575 8.0275 -1.0225 7.3675 -3.0625 6.6875 C-3.0625 6.0275 -3.0625 5.3675 -3.0625 4.6875 C-3.7225 4.6875 -4.3825 4.6875 -5.0625 4.6875 C-4.6875 2.75 -4.6875 2.75 -4.0625 0.6875 C-2.0625 -0.3125 -2.0625 -0.3125 0 0 Z " fill="#F1C43B" transform="translate(73.0625,79.3125)"/>
<path d="M0 0 C0.66 0.33 1.32 0.66 2 1 C-0.81865285 5.22797927 -0.81865285 5.22797927 -3 7 C-5.85646479 7.53855713 -8.06501905 7.29847264 -11 7 C-11.33 6.34 -11.66 5.68 -12 5 C-11.34 5 -10.68 5 -10 5 C-10 4.34 -10 3.68 -10 3 C-7.36 3 -4.72 3 -2 3 C-2 2.34 -2 1.68 -2 1 C-1.34 0.67 -0.68 0.34 0 0 Z " fill="#AE8648" transform="translate(44,85)"/>
<path d="M0 0 C0.66 0 1.32 0 2 0 C2 0.99 2 1.98 2 3 C2.66 3 3.32 3 4 3 C5.625 4.375 5.625 4.375 7 6 C7 6.66 7 7.32 7 8 C7.66 8 8.32 8 9 8 C9.33 9.32 9.66 10.64 10 12 C7.11562221 10.70700306 5.12780579 9.34058637 3 7 C2.01 7.99 1.02 8.98 0 10 C0 6.7 0 3.4 0 0 Z " fill="#9D6631" transform="translate(62,80)"/>
<path d="M0 0 C1.65 0.33 3.3 0.66 5 1 C5.98120464 4.05263664 5.98120464 5.94736336 5 9 C3.02 9 1.04 9 -1 9 C-0.67 6.03 -0.34 3.06 0 0 Z " fill="#F7990B" transform="translate(37,42)"/>
<path d="M0 0 C1.65 0.33 3.3 0.66 5 1 C4.6875 2.875 4.6875 2.875 4 5 C1 7 1 7 -2 7 C-2 7.66 -2 8.32 -2 9 C-2.99 9 -3.98 9 -5 9 C-5 7.35 -5 5.7 -5 4 C-2.525 4.495 -2.525 4.495 0 5 C0 3.35 0 1.7 0 0 Z " fill="#F5970B" transform="translate(53,33)"/>
<path d="M0 0 C0.66 0 1.32 0 2 0 C2 1.32 2 2.64 2 4 C-2.11692867 7.60231259 -5.81580782 7.26360299 -11 7 C-11.33 5.02 -11.66 3.04 -12 1 C-11.62875 1.515625 -11.2575 2.03125 -10.875 2.5625 C-8.9962832 4.32087268 -8.9962832 4.32087268 -6 3.875 C-2.96121563 2.98868789 -2.0104627 2.31203211 0 0 Z " fill="#F3BF64" transform="translate(32,69)"/>
<path d="M0 0 C0.70189453 0.00451172 1.40378906 0.00902344 2.12695312 0.01367188 C3.85550538 0.02543073 5.58401365 0.04336546 7.3125 0.0625 C6.9825 0.7225 6.6525 1.3825 6.3125 2.0625 C1.6925 2.0625 -2.9275 2.0625 -7.6875 2.0625 C-8.0175 3.3825 -8.3475 4.7025 -8.6875 6.0625 C-9.6775 6.3925 -10.6675 6.7225 -11.6875 7.0625 C-12.0175 7.7225 -12.3475 8.3825 -12.6875 9.0625 C-12.6875 7.4125 -12.6875 5.7625 -12.6875 4.0625 C-12.0275 4.0625 -11.3675 4.0625 -10.6875 4.0625 C-10.6875 3.0725 -10.6875 2.0825 -10.6875 1.0625 C-7.06882441 -0.1437252 -3.76243749 -0.04566918 0 0 Z " fill="#D87326" transform="translate(56.6875,42.9375)"/>
<path d="M0 0 C1.32 0 2.64 0 4 0 C4.33 1.32 4.66 2.64 5 4 C7.31 4 9.62 4 12 4 C11.67 4.99 11.34 5.98 11 7 C10.01 7 9.02 7 8 7 C8 7.66 8 8.32 8 9 C7.01 8.67 6.02 8.34 5 8 C5 7.01 5 6.02 5 5 C3.35 4.67 1.7 4.34 0 4 C0 2.68 0 1.36 0 0 Z " fill="#EE9D22" transform="translate(54,28)"/>
<path d="M0 0 C1.98 0 3.96 0 6 0 C6.25 7.625 6.25 7.625 4 11 C4 8.36 4 5.72 4 3 C1.03 3.66 -1.94 4.32 -5 5 C-4.67 4.01 -4.34 3.02 -4 2 C-2.68 2 -1.36 2 0 2 C0 1.34 0 0.68 0 0 Z " fill="#E0B762" transform="translate(72,17)"/>
<path d="M0 0 C0.33 0 0.66 0 1 0 C1 2.64 1 5.28 1 8 C2.32 8.33 3.64 8.66 5 9 C2 11 2 11 -2 11 C-2.33 11.99 -2.66 12.98 -3 14 C-3.99 13.67 -4.98 13.34 -6 13 C-5.67 12.01 -5.34 11.02 -5 10 C-3.68 9.67 -2.36 9.34 -1 9 C-0.67 6.03 -0.34 3.06 0 0 Z " fill="#F89D24" transform="translate(69,32)"/>
<path d="M0 0 C2.16874252 0.50603992 3.99967627 0.99983813 6 2 C6 2.66 6 3.32 6 4 C5.071875 4.268125 4.14375 4.53625 3.1875 4.8125 C0.23759634 5.91148371 -1.05615186 6.62418561 -3 9 C-3 6.69 -3 4.38 -3 2 C-2.01 2 -1.02 2 0 2 C0 1.34 0 0.68 0 0 Z " fill="#E6B076" transform="translate(36,15)"/>
<path d="M0 0 C0.33 1.32 0.66 2.64 1 4 C0.01 4 -0.98 4 -2 4 C-2 3.34 -2 2.68 -2 2 C-4.35171131 2.59861742 -6.6859378 3.26924352 -9 4 C-9.33 4.66 -9.66 5.32 -10 6 C-9.625 3.0625 -9.625 3.0625 -9 0 C-5.93109813 -1.53445094 -3.29905734 -0.54984289 0 0 Z " fill="#D7AD73" transform="translate(61,12)"/>
<path d="M0 0 C0.33 0.99 0.66 1.98 1 3 C1.66 3 2.32 3 3 3 C3.40801001 6.46808506 2.9631942 8.0736116 1.375 11.25 C-1 14 -1 14 -4.25 14.875 C-5.61125 14.936875 -5.61125 14.936875 -7 15 C-6.01 14.67 -5.02 14.34 -4 14 C-4 13.34 -4 12.68 -4 12 C-3.34 12 -2.68 12 -2 12 C-2 11.34 -2 10.68 -2 10 C-1.34 10 -0.68 10 0 10 C0 6.7 0 3.4 0 0 Z " fill="#DD7C2D" transform="translate(66,50)"/>
<path d="M0 0 C1.258125 -0.020625 2.51625 -0.04125 3.8125 -0.0625 C4.52019531 -0.07410156 5.22789063 -0.08570312 5.95703125 -0.09765625 C8 0 8 0 11 1 C10.67 1.66 10.34 2.32 10 3 C7.69 2.67 5.38 2.34 3 2 C2.01 3.485 2.01 3.485 1 5 C1.66 5 2.32 5 3 5 C5 8 5 8 5 11 C4.34 11 3.68 11 3 11 C2.67 9.68 2.34 8.36 2 7 C1.34 7 0.68 7 0 7 C0 4.69 0 2.38 0 0 Z " fill="#EBBB67" transform="translate(21,31)"/>
<path d="M0 0 C-0.33 2.31 -0.66 4.62 -1 7 C-2.65 7.66 -4.3 8.32 -6 9 C-6.36521739 3.52173913 -6.36521739 3.52173913 -4.6875 1.125 C-3 0 -3 0 0 0 Z " fill="#ED960D" transform="translate(69,32)"/>
<path d="M0 0 C1.32 0.33 2.64 0.66 4 1 C3.67 2.32 3.34 3.64 3 5 C2.19175781 4.98839844 1.38351563 4.97679687 0.55078125 4.96484375 C-1.05216797 4.95130859 -1.05216797 4.95130859 -2.6875 4.9375 C-3.74324219 4.92589844 -4.79898437 4.91429687 -5.88671875 4.90234375 C-8.72410262 4.99134575 -11.2438919 5.35060162 -14 6 C-12.246314 3.82240976 -11.3522538 3.06358575 -8.5546875 2.55859375 C-7.22824219 2.49865234 -7.22824219 2.49865234 -5.875 2.4375 C-3.25849402 2.35410928 -3.25849402 2.35410928 -1 2 C-0.67 1.34 -0.34 0.68 0 0 Z " fill="#CD9447" transform="translate(27,44)"/>
<path d="M0 0 C0.7734375 -0.00257812 1.546875 -0.00515625 2.34375 -0.0078125 C4.5 0.125 4.5 0.125 7.5 1.125 C7.83 2.775 8.16 4.425 8.5 6.125 C3.625 3.25 3.625 3.25 2.5 2.125 C-0.99734228 2.51359359 -4.15788261 3.01096087 -7.5 4.125 C-7.5 3.135 -7.5 2.145 -7.5 1.125 C-4.68772378 0.18757459 -2.91253156 -0.00970844 0 0 Z " fill="#983A0C" transform="translate(56.5,43.875)"/>
<path d="M0 0 C0.99 0.99 1.98 1.98 3 3 C3.45375 2.505 3.9075 2.01 4.375 1.5 C6 0 6 0 8 0 C8 2 8 2 6.5625 3.5 C6.046875 3.995 5.53125 4.49 5 5 C4.67 5.66 4.34 6.32 4 7 C3.34 7 2.68 7 2 7 C2 7.99 2 8.98 2 10 C1.34 10 0.68 10 0 10 C0 6.7 0 3.4 0 0 Z " fill="#925C20" transform="translate(62,17)"/>
<path d="M0 0 C3.71599191 -0.20086443 4.77208445 -0.1519437 8 2 C8 2.66 8 3.32 8 4 C7.01 4 6.02 4 5 4 C5 4.99 5 5.98 5 7 C4.34 7 3.68 7 3 7 C3 6.34 3 5.68 3 5 C2.34 5 1.68 5 1 5 C0.67 3.35 0.34 1.7 0 0 Z " fill="#BD7D39" transform="translate(74,73)"/>
<path d="M0 0 C2.64 0 5.28 0 8 0 C6.68 0.99 5.36 1.98 4 3 C4.99 4.65 5.98 6.3 7 8 C4.525 7.01 4.525 7.01 2 6 C2 5.01 2 4.02 2 3 C1.01 3 0.02 3 -1 3 C-0.67 2.01 -0.34 1.02 0 0 Z " fill="#A16C28" transform="translate(85,60)"/>
<path d="M0 0 C1.32 0.33 2.64 0.66 4 1 C4 1.66 4 2.32 4 3 C4.99 3.33 5.98 3.66 7 4 C6.67 5.32 6.34 6.64 6 8 C3.36 8 0.72 8 -2 8 C1 6 1 6 3 5 C3 4.34 3 3.68 3 3 C2.01 2.67 1.02 2.34 0 2 C0 1.34 0 0.68 0 0 Z " fill="#926031" transform="translate(20,39)"/>
<path d="M0 0 C0 1.65 0 3.3 0 5 C0.66 5 1.32 5 2 5 C1.34 6.65 0.68 8.3 0 10 C-2 7 -2 7 -3 5 C-3.99 4.34 -4.98 3.68 -6 3 C-3.375 0 -3.375 0 0 0 Z " fill="#FCB545" transform="translate(32,61)"/>
<path d="M0 0 C2.0625 0.4375 2.0625 0.4375 4 1 C3.67 1.66 3.34 2.32 3 3 C3.99 3 4.98 3 6 3 C6 3.99 6 4.98 6 6 C4.02 6 2.04 6 0 6 C-0.38218767 4.34385343 -0.71395102 2.67542976 -1 1 C-0.67 0.67 -0.34 0.34 0 0 Z " fill="#F1C54E" transform="translate(18,52)"/>
<path d="M0 0 C0.66 0 1.32 0 2 0 C2 0.99 2 1.98 2 3 C2.66 3 3.32 3 4 3 C4 4.65 4 6.3 4 8 C2.35 8 0.7 8 -1 8 C-1.33 7.01 -1.66 6.02 -2 5 C-1.34 5 -0.68 5 0 5 C0 3.35 0 1.7 0 0 Z " fill="#D2972F" transform="translate(34,27)"/>
<path d="M0 0 C0.99 0 1.98 0 3 0 C2.7834375 1.485 2.7834375 1.485 2.5625 3 C1.99074821 6.99409465 1.49180166 10.99532937 1 15 C0.34 14.34 -0.32 13.68 -1 13 C-0.68603757 9.04407344 -0.25172182 5.75516546 1 2 C0.34 1.67 -0.32 1.34 -1 1 C-0.67 0.67 -0.34 0.34 0 0 Z " fill="#8D6436" transform="translate(31,75)"/>
<path d="M0 0 C2.97 0.495 2.97 0.495 6 1 C5.6875 2.875 5.6875 2.875 5 5 C4.01 5.66 3.02 6.32 2 7 C2 6.34 2 5.68 2 5 C1.34 5 0.68 5 0 5 C0 3.35 0 1.7 0 0 Z " fill="#F6C334" transform="translate(37,21)"/>
<path d="M0 0 C5.40432346 -0.48038431 5.40432346 -0.48038431 7.9375 1.5625 C9.44937301 5.03091456 8.85775415 7.37104015 8 11 C7.01 12.485 7.01 12.485 6 14 C6.01740234 13.07767578 6.01740234 13.07767578 6.03515625 12.13671875 C6.04417969 11.32847656 6.05320312 10.52023438 6.0625 9.6875 C6.07410156 8.88699219 6.08570312 8.08648437 6.09765625 7.26171875 C6.09657855 4.83138666 6.09657855 4.83138666 5 2 C3.35 1.67 1.7 1.34 0 1 C0 0.67 0 0.34 0 0 Z " fill="#82593D" transform="translate(73,14)"/>
<path d="M0 0 C2.475 0.99 2.475 0.99 5 2 C5 2.99 5 3.98 5 5 C4.01 5 3.02 5 2 5 C2 5.66 2 6.32 2 7 C0.68 7 -0.64 7 -2 7 C-1.34 4.69 -0.68 2.38 0 0 Z " fill="#EEB538" transform="translate(77,63)"/>
<path d="M0 0 C0.99 0.33 1.98 0.66 3 1 C3.28875 1.825 3.5775 2.65 3.875 3.5 C4.24625 4.325 4.6175 5.15 5 6 C7.54775306 6.89386164 7.54775306 6.89386164 10 7 C10 7.66 10 8.32 10 9 C8.35 9 6.7 9 5 9 C4.67 7.68 4.34 6.36 4 5 C3.34 5 2.68 5 2 5 C2 4.34 2 3.68 2 3 C1.34 3 0.68 3 0 3 C0 2.01 0 1.02 0 0 Z " fill="#E2B36D" transform="translate(67,83)"/>
<path d="M0 0 C0.66 0 1.32 0 2 0 C2.33 1.65 2.66 3.3 3 5 C4.32 5 5.64 5 7 5 C7 5.99 7 6.98 7 8 C5.35 7.67 3.7 7.34 2 7 C2 6.34 2 5.68 2 5 C1.01 5 0.02 5 -1 5 C-0.67 3.35 -0.34 1.7 0 0 Z " fill="#F9AD2F" transform="translate(75,45)"/>
<path d="M0 0 C0.556875 0.391875 1.11375 0.78375 1.6875 1.1875 C0.3675 1.1875 -0.9525 1.1875 -2.3125 1.1875 C-2.3125 2.8375 -2.3125 4.4875 -2.3125 6.1875 C-3.9625 5.8575 -5.6125 5.5275 -7.3125 5.1875 C-7.3125 4.1975 -7.3125 3.2075 -7.3125 2.1875 C-3.20088417 -1.12463498 -3.20088417 -1.12463498 0 0 Z " fill="#FCA415" transform="translate(55.3125,31.8125)"/>
<path d="M0 0 C0.33 0 0.66 0 1 0 C1.33 4.95 1.66 9.9 2 15 C1.01 15 0.02 15 -1 15 C-1.02715383 13.25008666 -1.04646551 11.50005055 -1.0625 9.75 C-1.07410156 8.77546875 -1.08570312 7.8009375 -1.09765625 6.796875 C-1.01195577 4.34241322 -0.70706066 2.33831086 0 0 Z " fill="#885935" transform="translate(32,17)"/>
<path d="M0 0 C0.99 0 1.98 0 3 0 C3.625 2.375 3.625 2.375 4 5 C3.34 5.66 2.68 6.32 2 7 C0.68 7 -0.64 7 -2 7 C-1.67 6.030625 -1.34 5.06125 -1 4.0625 C0.05173363 1.37850426 0.05173363 1.37850426 0 0 Z " fill="#F5C03D" transform="translate(56,17)"/>
<path d="M0 0 C0.66 0.66 1.32 1.32 2 2 C1.67 2.99 1.34 3.98 1 5 C-1.31 5.33 -3.62 5.66 -6 6 C-6 5.34 -6 4.68 -6 4 C-4.03852126 2.61061923 -2.03833424 1.2739589 0 0 Z " fill="#F0B954" transform="translate(86,39)"/>
<path d="M0 0 C2.31 0 4.62 0 7 0 C7 0.66 7 1.32 7 2 C5.68 2 4.36 2 3 2 C3.33 2.99 3.66 3.98 4 5 C2.68 5 1.36 5 0 5 C0 3.35 0 1.7 0 0 Z " fill="#EC9E1C" transform="translate(34,40)"/>
<path d="M0 0 C0.66 0.33 1.32 0.66 2 1 C2 2.65 2 4.3 2 6 C-0.64 6 -3.28 6 -6 6 C-5.67 5.34 -5.34 4.68 -5 4 C-4.34 4 -3.68 4 -3 4 C-3 3.34 -3 2.68 -3 2 C-2.34 2 -1.68 2 -1 2 C-0.67 2.33 -0.34 2.66 0 3 C0 2.01 0 1.02 0 0 Z " fill="#F4B04A" transform="translate(47,26)"/>
<path d="M0 0 C0.66 0 1.32 0 2 0 C2 2.31 2 4.62 2 7 C0.68 7 -0.64 7 -2 7 C-1.125 2.25 -1.125 2.25 0 0 Z " fill="#F8C031" transform="translate(56,85)"/>
<path d="M0 0 C1.65 0 3.3 0 5 0 C5 2.64 5 5.28 5 8 C4.34 8 3.68 8 3 8 C2.87625 7.195625 2.7525 6.39125 2.625 5.5625 C2.315625 4.2940625 2.315625 4.2940625 2 3 C1.34 2.67 0.68 2.34 0 2 C0 1.34 0 0.68 0 0 Z " fill="#F8A22C" transform="translate(49,72)"/>
<path d="M0 0 C2.64 0 5.28 0 8 0 C8 0.66 8 1.32 8 2 C6.865625 2.12375 5.73125 2.2475 4.5625 2.375 C2.7990625 2.684375 2.7990625 2.684375 1 3 C0.67 3.66 0.34 4.32 0 5 C0 3.35 0 1.7 0 0 Z " fill="#F99E10" transform="translate(67,65)"/>
<path d="M0 0 C1.32 0.33 2.64 0.66 4 1 C3.34 1 2.68 1 2 1 C2 2.65 2 4.3 2 6 C1.67 5.34 1.34 4.68 1 4 C-0.98 4.99 -0.98 4.99 -3 6 C-3.99 5.01 -4.98 4.02 -6 3 C-4.02 3 -2.04 3 0 3 C0 2.01 0 1.02 0 0 Z " fill="#F4AE40" transform="translate(32,39)"/>
<path d="M0 0 C0.99 0 1.98 0 3 0 C3 1.98 3 3.96 3 6 C3.66 6 4.32 6 5 6 C5 6.66 5 7.32 5 8 C3.68 7.67 2.36 7.34 1 7 C0.67 4.69 0.34 2.38 0 0 Z " fill="#C6955D" transform="translate(18,32)"/>
<path d="M0 0 C0.33 0 0.66 0 1 0 C1 3.3 1 6.6 1 10 C-3 8 -3 8 -4 5 C-3.01 4.67 -2.02 4.34 -1 4 C-0.26676204 1.98491642 -0.26676204 1.98491642 0 0 Z " fill="#CF9C38" transform="translate(50,18)"/>
<path d="M0 0 C1.46726798 3.81489674 0.43336419 6.29011622 -1 10 C-3.475 9.01 -3.475 9.01 -6 8 C-6 7.34 -6 6.68 -6 6 C-4.35 6 -2.7 6 -1 6 C-0.67 4.02 -0.34 2.04 0 0 Z " fill="#9B7133" transform="translate(50,14)"/>
<path d="M0 0 C2.31 0.33 4.62 0.66 7 1 C7 1.66 7 2.32 7 3 C6.34 3 5.68 3 5 3 C5 3.66 5 4.32 5 5 C4.34 5 3.68 5 3 5 C3 5.66 3 6.32 3 7 C2.01 6.67 1.02 6.34 0 6 C0.99 4.68 1.98 3.36 3 2 C2.01 1.34 1.02 0.68 0 0 Z " fill="#895A28" transform="translate(19,60)"/>
<path d="M0 0 C3.0625 0.3125 3.0625 0.3125 4.9375 1.6875 C6.0625 3.3125 6.0625 3.3125 6.0625 5.3125 C5.4025 5.3125 4.7425 5.3125 4.0625 5.3125 C4.0625 4.6525 4.0625 3.9925 4.0625 3.3125 C2.0825 2.6525 0.1025 1.9925 -1.9375 1.3125 C-1.9375 1.9725 -1.9375 2.6325 -1.9375 3.3125 C-2.9275 2.9825 -3.9175 2.6525 -4.9375 2.3125 C-2.9375 0.3125 -2.9375 0.3125 0 0 Z " fill="#99624D" transform="translate(37.9375,13.6875)"/>
<path d="M0 0 C2 2 2 2 2.1953125 3.9453125 C2.13020833 5.96354167 2.06510417 7.98177083 2 10 C1.34 10 0.68 10 0 10 C-1.125 2.25 -1.125 2.25 0 0 Z " fill="#F2B672" transform="translate(51,82)"/>
<path d="M0 0 C0.33 0.66 0.66 1.32 1 2 C1.66 2 2.32 2 3 2 C3 5.3 3 8.6 3 12 C2.34 12 1.68 12 1 12 C1.020625 11.13375 1.04125 10.2675 1.0625 9.375 C1.00261044 6.14096352 0.60419067 3.17200103 0 0 Z " fill="#D9AA65" transform="translate(76,78)"/>
<path d="M0 0 C-0.66 1.65 -1.32 3.3 -2 5 C-2.66 5 -3.32 5 -4 5 C-4 4.34 -4 3.68 -4 3 C-4.99 2.67 -5.98 2.34 -7 2 C-4 0 -4 0 0 0 Z " fill="#D89940" transform="translate(38,72)"/>
<path d="M0 0 C0 1.32 0 2.64 0 4 C-3 6 -3 6 -5.1875 5.625 C-5.785625 5.41875 -6.38375 5.2125 -7 5 C-2.25 0 -2.25 0 0 0 Z " fill="#FABE59" transform="translate(34,69)"/>
<path d="M0 0 C-0.33 1.32 -0.66 2.64 -1 4 C-2.32 4.33 -3.64 4.66 -5 5 C-5 3.68 -5 2.36 -5 1 C-3 0 -3 0 0 0 Z " fill="#EDC13C" transform="translate(87,68)"/>
<path d="M0 0 C2.97 0.495 2.97 0.495 6 1 C5.67 1.99 5.34 2.98 5 4 C3.35 4 1.7 4 0 4 C-0.33 3.34 -0.66 2.68 -1 2 C-0.67 1.34 -0.34 0.68 0 0 Z " fill="#FCBF2F" transform="translate(89,53)"/>
<path d="M0 0 C0 1.65 0 3.3 0 5 C-1.65 4.67 -3.3 4.34 -5 4 C-5 3.01 -5 2.02 -5 1 C-3 0 -3 0 0 0 Z " fill="#EB9912" transform="translate(77,40)"/>
<path d="M0 0 C0.66 0.33 1.32 0.66 2 1 C1.25 3.9375 1.25 3.9375 0 7 C-2.125 7.875 -2.125 7.875 -4 8 C-3.67 7.01 -3.34 6.02 -3 5 C-2.34 5 -1.68 5 -1 5 C-0.67 3.35 -0.34 1.7 0 0 Z " fill="#D1A362" transform="translate(91,35)"/>
<path d="M0 0 C1.98 0 3.96 0 6 0 C5.67 0.99 5.34 1.98 5 3 C4.01 3 3.02 3 2 3 C2 3.66 2 4.32 2 5 C1.01 4.67 0.02 4.34 -1 4 C-0.67 2.68 -0.34 1.36 0 0 Z " fill="#FAA921" transform="translate(60,32)"/>
<path d="M0 0 C0.99 0.33 1.98 0.66 3 1 C2.01 1.495 2.01 1.495 1 2 C0.26924352 4.3140622 -0.40138258 6.64828869 -1 9 C-1.33 9 -1.66 9 -2 9 C-2 6.36 -2 3.72 -2 1 C-1.34 0.67 -0.68 0.34 0 0 Z " fill="#FCB32F" transform="translate(72,68)"/>
<path d="M0 0 C0.33 0 0.66 0 1 0 C1 3.3 1 6.6 1 10 C0.34 10 -0.32 10 -1 10 C-1 10.66 -1 11.32 -1 12 C-1.66 12 -2.32 12 -3 12 C-2.690625 11.319375 -2.38125 10.63875 -2.0625 9.9375 C-0.86629351 6.63034088 -0.40994603 3.48454122 0 0 Z " fill="#A54915" transform="translate(65,50)"/>
<path d="M0 0 C0.66 0.33 1.32 0.66 2 1 C1.34 2.65 0.68 4.3 0 6 C-0.99 6 -1.98 6 -3 6 C-3 4.35 -3 2.7 -3 1 C-2.01 0.67 -1.02 0.34 0 0 Z " fill="#DFB570" transform="translate(16,49)"/>
<path d="M0 0 C0.66 0 1.32 0 2 0 C2 1.32 2 2.64 2 4 C2.66 4.33 3.32 4.66 4 5 C-0.75 6.125 -0.75 6.125 -3 5 C-2.67 4.34 -2.34 3.68 -2 3 C-1.34 3.33 -0.68 3.66 0 4 C0 2.68 0 1.36 0 0 Z " fill="#F5AF3E" transform="translate(62,27)"/>
<path d="M0 0 C3 3.75 3 3.75 3 6 C1.35 6 -0.3 6 -2 6 C-1.34 4.02 -0.68 2.04 0 0 Z " fill="#F29825" transform="translate(36,61)"/>
<path d="M0 0 C0.33 0.99 0.66 1.98 1 3 C1.99 3 2.98 3 4 3 C4 3.66 4 4.32 4 5 C2.02 5 0.04 5 -2 5 C-1.125 1.125 -1.125 1.125 0 0 Z " fill="#F19203" transform="translate(71,60)"/>
<path d="M0 0 C2.76223278 2.76223278 2.57856291 5.20706617 3 9 C2.01 9.495 2.01 9.495 1 10 C0.67 6.7 0.34 3.4 0 0 Z " fill="#F48F2B" transform="translate(68,47)"/>
<path d="M0 0 C0.99 0 1.98 0 3 0 C3.33 0.99 3.66 1.98 4 3 C4.66 3.66 5.32 4.32 6 5 C4.02 5.99 4.02 5.99 2 7 C2 5.35 2 3.7 2 2 C1.01 1.67 0.02 1.34 -1 1 C-0.67 0.67 -0.34 0.34 0 0 Z " fill="#F4AC2C" transform="translate(75,38)"/>
<path d="M0 0 C0.66 0 1.32 0 2 0 C2.33 1.65 2.66 3.3 3 5 C1.35 5.33 -0.3 5.66 -2 6 C-1.34 4.02 -0.68 2.04 0 0 Z " fill="#AF6F23" transform="translate(77,28)"/>
<path d="M0 0 C0.66 0.33 1.32 0.66 2 1 C2 2.32 2 3.64 2 5 C0.68 5.33 -0.64 5.66 -2 6 C-2 4.68 -2 3.36 -2 2 C-1.34 2 -0.68 2 0 2 C0 1.34 0 0.68 0 0 Z " fill="#E7B05D" transform="translate(44,80)"/>
<path d="M0 0 C0.97608217 2.92824652 1.08226668 4.95613276 1 8 C0.34 7.67 -0.32 7.34 -1 7 C-1 6.34 -1 5.68 -1 5 C-1.66 5 -2.32 5 -3 5 C-2.625 3.0625 -2.625 3.0625 -2 1 C-1.34 0.67 -0.68 0.34 0 0 Z " fill="#FDC64A" transform="translate(71,79)"/>
<path d="M0 0 C0.66 0.66 1.32 1.32 2 2 C1.61121812 5.01305957 0.73543126 6.39685311 -1 9 C-1.80967438 6.08517222 -2.21845993 4.53886783 -1.0625 1.6875 C-0.711875 1.130625 -0.36125 0.57375 0 0 Z " fill="#FA9C12" transform="translate(44,61)"/>
<path d="M0 0 C1.65 0 3.3 0 5 0 C4.67 1.32 4.34 2.64 4 4 C2.68 4.33 1.36 4.66 0 5 C0 4.34 0 3.68 0 3 C0.66 3 1.32 3 2 3 C2 2.34 2 1.68 2 1 C1.34 0.67 0.68 0.34 0 0 Z " fill="#C88B34" transform="translate(24,60)"/>
<path d="M0 0 C0.99 0 1.98 0 3 0 C2.67 1.65 2.34 3.3 2 5 C0.68 5.33 -0.64 5.66 -2 6 C-1.34 4.02 -0.68 2.04 0 0 Z " fill="#FAAB26" transform="translate(34,45)"/>
<path d="M0 0 C0.33 0.66 0.66 1.32 1 2 C1.66 2 2.32 2 3 2 C5 5 5 5 5 8 C4.34 8 3.68 8 3 8 C2.67 6.68 2.34 5.36 2 4 C1.34 4 0.68 4 0 4 C0 2.68 0 1.36 0 0 Z " fill="#F1C25C" transform="translate(21,34)"/>
</svg>
